<mxfile host="app.diagrams.net" modified="2023-03-02T12:28:10.047Z" agent="5.0 (Windows NT 10.0; Win64; x64) AppleWebKit/537.36 (KHTML, like Gecko) Chrome/110.0.0.0 Safari/537.36 Edg/110.0.1587.57" etag="xC_y1DftamsP1pkpu-e3" version="20.8.23" type="github">
  <diagram name="Page-1" id="4fc8d65c-f3f6-feb3-4d1c-02f59d9f9886">
    <mxGraphModel dx="957" dy="521" grid="1" gridSize="10" guides="1" tooltips="1" connect="1" arrows="1" fold="1" page="1" pageScale="1" pageWidth="826" pageHeight="1169" background="none" math="0" shadow="0">
      <root>
        <mxCell id="0" />
        <mxCell id="1" parent="0" />
        <mxCell id="2" value="Mechanism" style="whiteSpace=wrap;strokeWidth=2" parent="1" vertex="1">
          <mxGeometry x="36.458333333333236" y="110" width="120" height="60" as="geometry" />
        </mxCell>
        <mxCell id="8" value="Tarantula Inspired Walking Robot" style="whiteSpace=wrap;strokeWidth=3" parent="1" vertex="1">
          <mxGeometry x="680" y="250" width="120" height="60" as="geometry" />
        </mxCell>
        <mxCell id="9" value="" style="edgeStyle=none;strokeWidth=4" parent="1" target="8" edge="1">
          <mxGeometry width="100" height="100" relative="1" as="geometry">
            <mxPoint x="120" y="280" as="sourcePoint" />
            <mxPoint x="240" y="230" as="targetPoint" />
          </mxGeometry>
        </mxCell>
        <mxCell id="12" value="" style="edgeStyle=none;exitX=0.5;exitY=1;strokeWidth=3" parent="1" source="2" edge="1">
          <mxGeometry width="100" height="100" relative="1" as="geometry">
            <mxPoint x="96.45833333333323" y="190" as="sourcePoint" />
            <mxPoint x="156.45833333333323" y="280" as="targetPoint" />
          </mxGeometry>
        </mxCell>
        <mxCell id="16" value="" style="edgeStyle=none;endArrow=none;strokeWidth=2" parent="1" edge="1">
          <mxGeometry width="100" height="100" relative="1" as="geometry">
            <mxPoint x="46.458333333333236" y="190" as="sourcePoint" />
            <mxPoint x="106.45833333333323" y="190" as="targetPoint" />
          </mxGeometry>
        </mxCell>
        <mxCell id="18" value="" style="edgeStyle=none;endArrow=none;strokeWidth=2" parent="1" edge="1">
          <mxGeometry width="100" height="100" relative="1" as="geometry">
            <mxPoint x="86.45833333333323" y="260" as="sourcePoint" />
            <mxPoint x="146.45833333333323" y="260" as="targetPoint" />
          </mxGeometry>
        </mxCell>
        <mxCell id="21" value="" style="edgeStyle=none;endArrow=none;strokeWidth=2" parent="1" edge="1">
          <mxGeometry width="100" height="100" relative="1" as="geometry">
            <mxPoint x="124.99833333333322" y="219.76" as="sourcePoint" />
            <mxPoint x="184.99833333333322" y="219.76" as="targetPoint" />
          </mxGeometry>
        </mxCell>
        <mxCell id="114" value="Frame Design" style="text;spacingTop=-5;fontSize=8;align=center;verticalAlign=middle;points=[]" parent="1" vertex="1">
          <mxGeometry x="36.458333333333236" y="190.00000000000006" width="30" height="19.999999999999886" as="geometry" />
        </mxCell>
        <mxCell id="117" value="Control Type" style="text;spacingTop=-5;fontSize=8;align=center;verticalAlign=middle;points=[]" parent="1" vertex="1">
          <mxGeometry x="49.99833333333321" y="260.0000000000001" width="30" height="19.999999999999886" as="geometry" />
        </mxCell>
        <mxCell id="143" value="Environment" style="whiteSpace=wrap;strokeWidth=2" parent="1" vertex="1">
          <mxGeometry x="260" y="109.99999999999994" width="120" height="60" as="geometry" />
        </mxCell>
        <mxCell id="145" value="" style="edgeStyle=none;exitX=0.5;exitY=1;strokeWidth=3" parent="1" source="143" edge="1">
          <mxGeometry width="100" height="100" relative="1" as="geometry">
            <mxPoint x="320" y="189.99999999999991" as="sourcePoint" />
            <mxPoint x="380" y="279.99999999999994" as="targetPoint" />
          </mxGeometry>
        </mxCell>
        <mxCell id="204" value="Research" style="whiteSpace=wrap;strokeWidth=2" parent="1" vertex="1">
          <mxGeometry x="475.8333333333331" y="111.52777777777752" width="120" height="60" as="geometry" />
        </mxCell>
        <mxCell id="206" value="" style="edgeStyle=none;exitX=0.5;exitY=1;strokeWidth=3" parent="1" source="204" edge="1">
          <mxGeometry width="100" height="100" relative="1" as="geometry">
            <mxPoint x="535.8333333333331" y="191.52777777777752" as="sourcePoint" />
            <mxPoint x="595.8333333333331" y="281.52777777777754" as="targetPoint" />
          </mxGeometry>
        </mxCell>
        <mxCell id="205" value="Legs" style="whiteSpace=wrap;strokeWidth=2" parent="1" vertex="1">
          <mxGeometry x="390.0033333333331" y="399.99777777777757" width="120" height="60" as="geometry" />
        </mxCell>
        <mxCell id="207" value="" style="edgeStyle=none;exitX=0.5;exitY=0;strokeWidth=3" parent="1" edge="1">
          <mxGeometry width="100" height="100" relative="1" as="geometry">
            <mxPoint x="450.0033333333333" y="399.99777777777757" as="sourcePoint" />
            <mxPoint x="510.00333333333316" y="279.99777777777757" as="targetPoint" />
          </mxGeometry>
        </mxCell>
        <mxCell id="144" value="Power" style="whiteSpace=wrap;strokeWidth=2" parent="1" vertex="1">
          <mxGeometry x="140" y="399.99999999999994" width="120" height="60" as="geometry" />
        </mxCell>
        <mxCell id="146" value="" style="edgeStyle=none;exitX=0.5;exitY=0;strokeWidth=3" parent="1" edge="1">
          <mxGeometry width="100" height="100" relative="1" as="geometry">
            <mxPoint x="200.0000000000001" y="399.99999999999994" as="sourcePoint" />
            <mxPoint x="260" y="279.99999999999994" as="targetPoint" />
          </mxGeometry>
        </mxCell>
        <mxCell id="7MO6U4HIEQ0yA2UQYTwc-268" value="" style="edgeStyle=none;endArrow=none;strokeWidth=2" edge="1" parent="1">
          <mxGeometry width="100" height="100" relative="1" as="geometry">
            <mxPoint x="329.9983333333332" y="189.76" as="sourcePoint" />
            <mxPoint x="389.9983333333332" y="189.76" as="targetPoint" />
          </mxGeometry>
        </mxCell>
        <mxCell id="7MO6U4HIEQ0yA2UQYTwc-269" value="" style="edgeStyle=none;endArrow=none;strokeWidth=2" edge="1" parent="1">
          <mxGeometry width="100" height="100" relative="1" as="geometry">
            <mxPoint x="289.58833333333325" y="222.5" as="sourcePoint" />
            <mxPoint x="349.58833333333325" y="222.5" as="targetPoint" />
          </mxGeometry>
        </mxCell>
        <mxCell id="7MO6U4HIEQ0yA2UQYTwc-270" value="" style="edgeStyle=none;endArrow=none;strokeWidth=2" edge="1" parent="1">
          <mxGeometry width="100" height="100" relative="1" as="geometry">
            <mxPoint x="359.9983333333332" y="242.5" as="sourcePoint" />
            <mxPoint x="419.9983333333332" y="242.5" as="targetPoint" />
          </mxGeometry>
        </mxCell>
        <mxCell id="7MO6U4HIEQ0yA2UQYTwc-271" value="Actuator Type" style="text;spacingTop=-5;fontSize=8;align=center;verticalAlign=middle;points=[]" vertex="1" parent="1">
          <mxGeometry x="189.99833333333322" y="220.0000000000001" width="30" height="19.999999999999886" as="geometry" />
        </mxCell>
        <mxCell id="7MO6U4HIEQ0yA2UQYTwc-272" value="" style="edgeStyle=none;endArrow=none;strokeWidth=2" edge="1" parent="1">
          <mxGeometry width="100" height="100" relative="1" as="geometry">
            <mxPoint x="184.99833333333322" y="310" as="sourcePoint" />
            <mxPoint x="244.99833333333322" y="310" as="targetPoint" />
          </mxGeometry>
        </mxCell>
        <mxCell id="7MO6U4HIEQ0yA2UQYTwc-273" value="" style="edgeStyle=none;endArrow=none;strokeWidth=2" edge="1" parent="1">
          <mxGeometry width="100" height="100" relative="1" as="geometry">
            <mxPoint x="223.99833333333322" y="350" as="sourcePoint" />
            <mxPoint x="283.9983333333332" y="350" as="targetPoint" />
          </mxGeometry>
        </mxCell>
        <mxCell id="7MO6U4HIEQ0yA2UQYTwc-274" value="" style="edgeStyle=none;endArrow=none;strokeWidth=2" edge="1" parent="1">
          <mxGeometry width="100" height="100" relative="1" as="geometry">
            <mxPoint x="156.4583333333332" y="370" as="sourcePoint" />
            <mxPoint x="216.4583333333332" y="370" as="targetPoint" />
          </mxGeometry>
        </mxCell>
        <mxCell id="7MO6U4HIEQ0yA2UQYTwc-275" value="" style="edgeStyle=none;endArrow=none;strokeWidth=2" edge="1" parent="1">
          <mxGeometry width="100" height="100" relative="1" as="geometry">
            <mxPoint x="486.9983333333332" y="189.76" as="sourcePoint" />
            <mxPoint x="546.9983333333332" y="189.76" as="targetPoint" />
          </mxGeometry>
        </mxCell>
        <mxCell id="7MO6U4HIEQ0yA2UQYTwc-276" value="" style="edgeStyle=none;endArrow=none;strokeWidth=2" edge="1" parent="1">
          <mxGeometry width="100" height="100" relative="1" as="geometry">
            <mxPoint x="569.9983333333332" y="239.31" as="sourcePoint" />
            <mxPoint x="629.9983333333332" y="239.31" as="targetPoint" />
          </mxGeometry>
        </mxCell>
        <mxCell id="7MO6U4HIEQ0yA2UQYTwc-278" value="" style="edgeStyle=none;endArrow=none;strokeWidth=2" edge="1" parent="1">
          <mxGeometry width="100" height="100" relative="1" as="geometry">
            <mxPoint x="495.9983333333332" y="310" as="sourcePoint" />
            <mxPoint x="555.9983333333332" y="310" as="targetPoint" />
          </mxGeometry>
        </mxCell>
        <mxCell id="7MO6U4HIEQ0yA2UQYTwc-279" value="" style="edgeStyle=none;endArrow=none;strokeWidth=2" edge="1" parent="1">
          <mxGeometry width="100" height="100" relative="1" as="geometry">
            <mxPoint x="419.9983333333332" y="340" as="sourcePoint" />
            <mxPoint x="479.9983333333332" y="340" as="targetPoint" />
          </mxGeometry>
        </mxCell>
        <mxCell id="7MO6U4HIEQ0yA2UQYTwc-280" value="" style="edgeStyle=none;endArrow=none;strokeWidth=2" edge="1" parent="1">
          <mxGeometry width="100" height="100" relative="1" as="geometry">
            <mxPoint x="459.9983333333332" y="380" as="sourcePoint" />
            <mxPoint x="519.9983333333332" y="380" as="targetPoint" />
          </mxGeometry>
        </mxCell>
        <mxCell id="7MO6U4HIEQ0yA2UQYTwc-281" value="Gait Pattern" style="text;spacingTop=-5;fontSize=8;align=center;verticalAlign=middle;points=[]" vertex="1" parent="1">
          <mxGeometry x="379.9983333333332" y="190.0000000000001" width="30" height="19.999999999999886" as="geometry" />
        </mxCell>
        <mxCell id="7MO6U4HIEQ0yA2UQYTwc-282" value="Joint Anatomy" style="text;spacingTop=-5;fontSize=8;align=center;verticalAlign=middle;points=[]" vertex="1" parent="1">
          <mxGeometry x="269.9983333333332" y="205.0000000000001" width="30" height="19.999999999999886" as="geometry" />
        </mxCell>
        <mxCell id="7MO6U4HIEQ0yA2UQYTwc-283" value="Leg Coordination" style="text;spacingTop=-5;fontSize=8;align=center;verticalAlign=middle;points=[]" vertex="1" parent="1">
          <mxGeometry x="434.9983333333332" y="240.0000000000001" width="30" height="19.999999999999886" as="geometry" />
        </mxCell>
        <mxCell id="7MO6U4HIEQ0yA2UQYTwc-284" value="Existing Works" style="text;spacingTop=-5;fontSize=8;align=center;verticalAlign=middle;points=[]" vertex="1" parent="1">
          <mxGeometry x="475.8283333333332" y="190.0000000000001" width="30" height="19.999999999999886" as="geometry" />
        </mxCell>
        <mxCell id="7MO6U4HIEQ0yA2UQYTwc-285" value="Possible  Improvements" style="text;spacingTop=-5;fontSize=8;align=center;verticalAlign=middle;points=[]" vertex="1" parent="1">
          <mxGeometry x="609.9983333333332" y="220.0000000000001" width="30" height="19.999999999999886" as="geometry" />
        </mxCell>
        <mxCell id="7MO6U4HIEQ0yA2UQYTwc-286" value="Number of Legs" style="text;spacingTop=-5;fontSize=8;align=center;verticalAlign=middle;points=[]" vertex="1" parent="1">
          <mxGeometry x="559.9983333333332" y="310.0000000000001" width="30" height="19.999999999999886" as="geometry" />
        </mxCell>
        <mxCell id="7MO6U4HIEQ0yA2UQYTwc-287" value="Joint Link Architecture" style="text;spacingTop=-5;fontSize=8;align=center;verticalAlign=middle;points=[]" vertex="1" parent="1">
          <mxGeometry x="390.0083333333332" y="320.0000000000001" width="30" height="19.999999999999886" as="geometry" />
        </mxCell>
        <mxCell id="7MO6U4HIEQ0yA2UQYTwc-288" value="Degree of Freedom" style="text;spacingTop=-5;fontSize=8;align=center;verticalAlign=middle;points=[]" vertex="1" parent="1">
          <mxGeometry x="529.9983333333332" y="360.0000000000001" width="30" height="19.999999999999886" as="geometry" />
        </mxCell>
        <mxCell id="7MO6U4HIEQ0yA2UQYTwc-289" value="Microcontroller&#xa;power" style="text;spacingTop=-5;fontSize=8;align=center;verticalAlign=middle;points=[]" vertex="1" parent="1">
          <mxGeometry x="129.99833333333322" y="300.0000000000001" width="30" height="19.999999999999886" as="geometry" />
        </mxCell>
        <mxCell id="7MO6U4HIEQ0yA2UQYTwc-290" value="Charging" style="text;spacingTop=-5;fontSize=8;align=center;verticalAlign=middle;points=[]" vertex="1" parent="1">
          <mxGeometry x="289.9983333333332" y="340.0000000000001" width="30" height="19.999999999999886" as="geometry" />
        </mxCell>
        <mxCell id="7MO6U4HIEQ0yA2UQYTwc-291" value="Actuator &#xa;Power" style="text;spacingTop=-5;fontSize=8;align=center;verticalAlign=middle;points=[]" vertex="1" parent="1">
          <mxGeometry x="119.99833333333322" y="360.0000000000001" width="30" height="19.999999999999886" as="geometry" />
        </mxCell>
      </root>
    </mxGraphModel>
  </diagram>
</mxfile>
